<?xml version="1.0" encoding="UTF-8"?>
<svg version="1.1" xmlns="http://www.w3.org/2000/svg" width="599" height="207">
<path d="M0 0 C9.9 0 19.8 0 30 0 C30.33 23.43 30.66 46.86 31 71 C34.3 68.36 37.6 65.72 41 63 C43.68341984 61.42196617 46.20940908 60.00586452 49 58.6875 C49.68642578 58.35484131 50.37285156 58.02218262 51.08007812 57.67944336 C69.3186073 49.03415748 90.2418531 48.5538946 109.2890625 55.13671875 C112.25188608 56.32559859 115.1261468 57.61090164 118 59 C118.77730469 59.36867187 119.55460937 59.73734375 120.35546875 60.1171875 C138.36911516 69.3631299 151.48648043 86.05811038 158 105 C164.22418779 125.7213585 162.85227156 146.53151746 153.08447266 165.80664062 C147.63406174 175.89768713 140.30001973 185.19510751 131 192 C130.34 192 129.68 192 129 192 C129 192.66 129 193.32 129 194 C123.55448329 197.06507807 118.07538678 200.05186847 112.4375 202.75 C111.63183594 203.13671875 110.82617188 203.5234375 109.99609375 203.921875 C101.01647348 207.1531334 92.09037958 207.33699632 82.625 207.3125 C80.76875 207.33666992 80.76875 207.33666992 78.875 207.36132812 C67.31545331 207.3674121 57.38124329 205.37365269 47.25 199.75 C46.16440796 199.16327515 46.16440796 199.16327515 45.05688477 198.56469727 C39.74474361 195.61324117 35.31237086 192.31237086 31 188 C30.67 193.28 30.34 198.56 30 204 C20.1 204 10.2 204 0 204 C0 136.68 0 69.36 0 0 Z M41 97 C31.06994029 110.179159 28.09259922 123.75490811 30 140 C31.9515508 148.13007759 35.88069964 156.34941331 41 163 C41.66 163 42.32 163 43 163 C43.66 164.32 44.32 165.64 45 167 C45.66 167 46.32 167 47 167 C47 167.66 47 168.32 47 169 C58.04139853 177.82442481 71.95119654 182.17499084 86 181 C96.53450449 179.21968008 104.65289226 175.63974479 113 169 C113.66515625 168.47792969 114.3303125 167.95585937 115.015625 167.41796875 C124.6395533 158.85614064 130.11036878 145.62072617 131.2734375 133.04296875 C131.79867407 117.62929568 126.53638817 105.28678086 116.6875 93.625 C112.28849964 88.98821584 107.765275 85.73722255 102 83 C101.13117188 82.5875 100.26234375 82.175 99.3671875 81.75 C78.82586878 73.51058525 55.01041393 80.19332882 41 97 Z " fill="#FFFFFF" transform="translate(185,0)"/>
<path d="M0 0 C10.23 0 20.46 0 31 0 C31.01981934 3.91077393 31.03963867 7.82154785 31.06005859 11.85083008 C31.12704961 24.79091254 31.20459026 37.73091389 31.28752708 50.67090321 C31.33754136 58.5142251 31.38398507 66.35753712 31.421875 74.20092773 C31.45492849 81.04124392 31.49483233 87.88148092 31.54279006 94.72170943 C31.56792302 98.33990358 31.58974238 101.95804609 31.60334396 105.57630348 C31.61869723 109.62626044 31.64935166 113.67596883 31.68115234 117.72583008 C31.68331253 118.91122879 31.68547272 120.0966275 31.68769836 121.31794739 C31.85090448 137.65357679 35.36967284 152.23410348 46.375 164.6875 C58.90995919 175.73020214 71.12059934 179.02895209 87.69482422 178.22216797 C100.03050297 177.03328133 111.61130967 169.81979466 119.40234375 160.37109375 C129.09884734 145.98043928 130.12121711 130.86879462 130.20532227 114.09301758 C130.21522186 112.85270782 130.22512146 111.61239807 130.23532104 110.33450317 C130.26129341 106.9695648 130.28324242 103.60464741 130.30332303 100.23967195 C130.32536665 96.7096175 130.3526644 93.17960354 130.37937927 89.64958191 C130.42906011 82.98114388 130.47408898 76.31268308 130.51740164 69.64420098 C130.56698596 62.04551473 130.62182467 54.44686916 130.67708123 46.84822237 C130.79052291 31.23218457 130.89674916 15.61610901 131 0 C141.23 0 151.46 0 162 0 C162 67.32 162 134.64 162 204 C151.77 204 141.54 204 131 204 C130.67 198.72 130.34 193.44 130 188 C128.535625 189.32 127.07125 190.64 125.5625 192 C120.77586971 195.91971148 115.96695827 198.80424654 110.375 201.4375 C109.68349854 201.76685547 108.99199707 202.09621094 108.27954102 202.43554688 C98.29823103 206.94969533 88.75023727 207.40845232 77.875 207.375 C77.18302521 207.37412384 76.49105042 207.37324768 75.77810669 207.37234497 C54.62346127 207.28375229 36.26773899 201.34718653 21.04296875 186.03125 C9.00455019 172.81259433 -0.13619005 154.98428173 -0.12025452 136.84963989 C-0.12162918 135.63816788 -0.12300385 134.42669586 -0.12442017 133.17851257 C-0.12082489 131.86292862 -0.11722961 130.54734467 -0.11352539 129.19189453 C-0.11324309 127.78216046 -0.11340209 126.37242625 -0.1139679 124.96269226 C-0.1142542 121.14704059 -0.10838435 117.3314205 -0.10139394 113.51577616 C-0.09513272 109.52393664 -0.09455441 105.53209636 -0.09336853 101.54025269 C-0.09026337 93.98621971 -0.08206098 86.43220125 -0.07201904 78.87817466 C-0.06083257 70.27602465 -0.05534107 61.67387393 -0.05032361 53.07171845 C-0.03987769 35.38113574 -0.02154234 17.69057292 0 0 Z " fill="#FFFFFF" transform="translate(0,0)"/>
<path d="M0 0 C0 0.66 0 1.32 0 2 C0.59167969 2.25910156 1.18335938 2.51820312 1.79296875 2.78515625 C14.80637691 9.94828888 20.81322887 28.34185159 24.81640625 41.73046875 C26.99550914 51.31547378 26 61.26687947 26 71 C-13.93 71 -53.86 71 -95 71 C-91.09358797 82.67284797 -91.09358797 82.67284797 -85.13671875 92.328125 C-84 94 -84 94 -84 96 C-83.34 96 -82.68 96 -82 96 C-81.4328125 96.73992187 -80.865625 97.47984375 -80.28125 98.2421875 C-77.71422223 101.34547792 -74.96751555 103.1930034 -71.5 105.125 C-70.8827002 105.47046875 -70.26540039 105.8159375 -69.62939453 106.171875 C-56.30052612 113.34080192 -42.98003733 113.48360198 -28.625 109.3359375 C-23.16520642 107.3238153 -18.63529786 104.48040161 -14 101 C-13.38382812 100.54238281 -12.76765625 100.08476562 -12.1328125 99.61328125 C-8.93668651 97.09295305 -6.42124851 94.259373 -4 91 C0.5549858 93.16422279 4.51486489 96.03764796 8.625 98.9375 C9.40101563 99.47568359 10.17703125 100.01386719 10.9765625 100.56835938 C11.7190625 101.09107422 12.4615625 101.61378906 13.2265625 102.15234375 C13.90283691 102.62663818 14.57911133 103.10093262 15.27587891 103.58959961 C17 105 17 105 19 108 C9.48373465 119.30299272 -0.67442947 127.94186738 -14.25 134 C-14.87479248 134.27884033 -15.49958496 134.55768066 -16.14331055 134.8449707 C-33.79622053 142.19939076 -58.25801478 141.85048453 -76 135 C-85.68812201 130.99144116 -94.22342878 126.11165992 -102 119 C-102.63164062 118.44828125 -103.26328125 117.8965625 -103.9140625 117.328125 C-116.86103999 105.35074495 -125.08246045 86.36035737 -126.1262207 68.88696289 C-126.90343523 46.30332925 -121.71339124 26.03922701 -106.5625 8.75 C-79.00338391 -20.618553 -32.07979502 -26.73316252 0 0 Z M-85 27 C-85 27.66 -85 28.32 -85 29 C-85.66 29 -86.32 29 -87 29 C-87.79423861 30.56119422 -88.58527123 32.12401964 -89.375 33.6875 C-89.81585938 34.55761719 -90.25671875 35.42773438 -90.7109375 36.32421875 C-93.23920376 41.44085409 -93.23920376 41.44085409 -94 47 C-64.63 47 -35.26 47 -5 47 C-7.25159194 38.92665621 -7.25159194 38.92665621 -10.6875 31.875 C-11.12449219 31.12992188 -11.56148438 30.38484375 -12.01171875 29.6171875 C-12.33785156 29.08351563 -12.66398437 28.54984375 -13 28 C-13.66 28 -14.32 28 -15 28 C-15.25523437 27.4121875 -15.51046875 26.824375 -15.7734375 26.21875 C-19.84307077 18.85712039 -28.117291 14.54964226 -35.85546875 12.09375 C-54.99437412 6.85420176 -71.48186509 12.6352178 -85 27 Z " fill="#FFFFFF" transform="translate(482,68)"/>
<path d="M0 0 C0 9.57 0 19.14 0 29 C-2.8875 29.061875 -5.775 29.12375 -8.75 29.1875 C-17.02668468 29.5076593 -23.62542886 31.06116916 -31 35 C-31.72316406 35.30035156 -32.44632813 35.60070312 -33.19140625 35.91015625 C-35.49391898 37.29763152 -35.95934282 38.55086714 -37 41 C-37.4021875 41.66257813 -37.804375 42.32515625 -38.21875 43.0078125 C-38.6415625 43.70648438 -39.064375 44.40515625 -39.5 45.125 C-39.9228125 45.80820313 -40.345625 46.49140625 -40.78125 47.1953125 C-43.84770741 54.2520959 -44.29869209 61.88476534 -44.31884766 69.48876953 C-44.32889328 70.37780472 -44.3389389 71.2668399 -44.34928894 72.18281555 C-44.3798541 75.08280874 -44.39708103 77.98271079 -44.4140625 80.8828125 C-44.43279566 82.90877045 -44.45237064 84.93472077 -44.4727478 86.96066284 C-44.52384814 92.26399213 -44.56359152 97.56734666 -44.60089111 102.87078857 C-44.64107004 108.29412973 -44.69209871 113.71736792 -44.7421875 119.140625 C-44.83868487 129.76035116 -44.92216855 140.38012062 -45 151 C-55.23 151 -65.46 151 -76 151 C-76.02254587 131.59008286 -76.0409785 112.18017626 -76.05181217 92.77024937 C-76.05697542 83.75853063 -76.06401866 74.74682058 -76.07543945 65.73510742 C-76.08538541 57.8834045 -76.09185322 50.03170786 -76.09408849 42.17999882 C-76.09539575 38.01996548 -76.09848255 33.85995015 -76.10573006 29.69992256 C-76.11248889 25.78891588 -76.11461724 21.87793473 -76.11310768 17.96692276 C-76.11338407 16.52732772 -76.11539001 15.08773187 -76.11920547 13.64814186 C-76.12414051 11.69105767 -76.12239807 9.73395996 -76.12025452 7.77687073 C-76.12117631 6.67901528 -76.1220981 5.58115984 -76.12304783 4.45003605 C-76 2 -76 2 -75 1 C-72.78144736 0.91216458 -70.56011504 0.89305391 -68.33984375 0.90234375 C-67.34314415 0.90446617 -67.34314415 0.90446617 -66.3263092 0.90663147 C-64.19666101 0.91224482 -62.06711661 0.92479946 -59.9375 0.9375 C-58.49674631 0.94251329 -57.05599097 0.94707649 -55.61523438 0.95117188 C-52.07675042 0.96136924 -48.53849187 0.9809417 -45 1 C-44.67 5.95 -44.34 10.9 -44 16 C-43.0409375 14.700625 -43.0409375 14.700625 -42.0625 13.375 C-31.05395126 0.22071718 -15.92117235 -0.14089533 0 0 Z " fill="#FFFFFF" transform="translate(599,53)"/>
</svg>
